<?xml version="1.0" standalone="no"?>
<!DOCTYPE svg PUBLIC "-//W3C//DTD SVG 20010904//EN"
 "http://www.w3.org/TR/2001/REC-SVG-20010904/DTD/svg10.dtd">
<svg version="1.0" xmlns="http://www.w3.org/2000/svg"
 width="76.000000pt" height="85.000000pt" viewBox="0 0 76.000000 85.000000"
 preserveAspectRatio="xMidYMid meet">
<metadata>
Created by potrace 1.16, written by Peter Selinger 2001-2019
</metadata>
<g transform="translate(0.000000,85.000000) scale(0.100000,-0.100000)"
fill="#000000" stroke="none">
<path d="M352 690 c-82 -59 -113 -139 -60 -153 28 -8 53 7 74 42 24 41 68 65
94 51 11 -6 25 -20 31 -31 12 -24 18 -134 7 -145 -4 -4 -25 5 -46 20 -52 36
-100 43 -145 21 -44 -21 -114 -101 -164 -187 -29 -51 -36 -74 -37 -120 -1 -75
14 -91 97 -98 96 -8 193 24 266 89 26 24 37 28 51 21 33 -18 78 -12 91 11 9
18 6 30 -16 71 -26 47 -26 51 -12 87 26 64 31 169 12 226 -40 119 -151 162
-243 95z m52 -293 c55 -71 52 -109 -11 -169 -51 -49 -175 -89 -199 -65 -33 33
117 267 172 267 7 0 24 -15 38 -33z"/>
</g>
</svg>
