<?xml version="1.0" standalone="no"?>
<!DOCTYPE svg PUBLIC "-//W3C//DTD SVG 20010904//EN"
 "http://www.w3.org/TR/2001/REC-SVG-20010904/DTD/svg10.dtd">
<svg version="1.0" xmlns="http://www.w3.org/2000/svg"
 width="60.000000pt" height="85.000000pt" viewBox="0 0 60.000000 85.000000"
 preserveAspectRatio="xMidYMid meet">
<metadata>
Created by potrace 1.16, written by Peter Selinger 2001-2019
</metadata>
<g transform="translate(0.000000,85.000000) scale(0.100000,-0.100000)"
fill="#000000" stroke="none">
<path d="M184 691 c-25 -11 -78 -71 -99 -111 -24 -46 -47 -161 -40 -198 17
-91 77 -178 138 -201 45 -17 129 -13 203 10 105 32 142 65 110 97 -13 14 -23
13 -88 -6 -127 -37 -160 -38 -195 -8 -64 54 -79 178 -33 265 38 70 46 76 108
76 50 0 57 3 60 21 2 11 -6 28 -17 38 -22 20 -115 31 -147 17z"/>
</g>
</svg>
