<?xml version="1.0" standalone="no"?>
<!DOCTYPE svg PUBLIC "-//W3C//DTD SVG 20010904//EN"
 "http://www.w3.org/TR/2001/REC-SVG-20010904/DTD/svg10.dtd">
<svg version="1.0" xmlns="http://www.w3.org/2000/svg"
 width="64.000000pt" height="90.000000pt" viewBox="0 0 64.000000 90.000000"
 preserveAspectRatio="xMidYMid meet">
<metadata>
Created by potrace 1.16, written by Peter Selinger 2001-2019
</metadata>
<g transform="translate(0.000000,90.000000) scale(0.100000,-0.100000)"
fill="#000000" stroke="none">
<path d="M194 742 c-44 -21 -88 -71 -125 -142 -18 -36 -23 -61 -23 -126 -1
-74 2 -84 29 -124 54 -78 161 -128 295 -136 76 -5 90 -3 130 18 33 17 46 30
48 49 5 39 -20 54 -58 34 -53 -27 -146 -30 -214 -6 -60 21 -106 54 -106 76 0
8 17 13 45 13 64 2 114 19 168 58 54 39 87 87 87 124 0 67 -113 169 -194 177
-27 2 -55 -3 -82 -15z m143 -94 c33 -31 31 -86 -4 -120 -37 -35 -73 -48 -134
-48 -48 0 -49 1 -49 30 0 44 22 90 63 134 32 34 41 38 69 32 18 -3 42 -16 55
-28z"/>
<path d="M0 293 c0 -21 3 -24 9 -14 5 8 7 20 4 28 -8 21 -13 15 -13 -14z"/>
</g>
</svg>
