<?xml version="1.0" standalone="no"?>
<!DOCTYPE svg PUBLIC "-//W3C//DTD SVG 20010904//EN"
 "http://www.w3.org/TR/2001/REC-SVG-20010904/DTD/svg10.dtd">
<svg version="1.0" xmlns="http://www.w3.org/2000/svg"
 width="56.000000pt" height="127.000000pt" viewBox="0 0 56.000000 127.000000"
 preserveAspectRatio="xMidYMid meet">
<metadata>
Created by potrace 1.16, written by Peter Selinger 2001-2019
</metadata>
<g transform="translate(0.000000,127.000000) scale(0.100000,-0.100000)"
fill="#000000" stroke="none">
<path d="M227 1173 c-8 -10 -25 -40 -37 -68 -62 -143 -67 -421 -13 -721 9 -50
14 -98 10 -106 -3 -8 -27 -26 -54 -40 -58 -31 -69 -62 -26 -79 20 -7 38 -7 64
0 54 16 56 15 70 -38 13 -51 42 -77 74 -65 25 10 26 40 5 98 -12 31 -19 60
-16 65 3 4 45 27 93 51 49 23 98 51 111 63 30 28 29 61 -3 75 -22 10 -34 7
-93 -25 -37 -19 -76 -42 -87 -49 -31 -22 -53 -17 -59 13 -42 204 -55 444 -32
584 17 106 30 149 45 149 9 0 57 -133 87 -245 11 -41 18 -113 20 -223 2 -89 6
-167 9 -172 10 -15 52 -12 69 6 21 21 21 158 1 273 -21 113 -122 420 -148 449
-25 26 -68 29 -90 5z"/>
</g>
</svg>
