<?xml version="1.0" standalone="no"?>
<!DOCTYPE svg PUBLIC "-//W3C//DTD SVG 20010904//EN"
 "http://www.w3.org/TR/2001/REC-SVG-20010904/DTD/svg10.dtd">
<svg version="1.0" xmlns="http://www.w3.org/2000/svg"
 width="76.000000pt" height="158.000000pt" viewBox="0 0 76.000000 158.000000"
 preserveAspectRatio="xMidYMid meet">
<metadata>
Created by potrace 1.16, written by Peter Selinger 2001-2019
</metadata>
<g transform="translate(0.000000,158.000000) scale(0.100000,-0.100000)"
fill="#000000" stroke="none">
<path d="M404 1436 c-41 -18 -111 -116 -130 -184 -32 -110 15 -255 96 -297 42
-22 102 -19 134 6 31 24 28 29 57 -96 38 -167 37 -476 -3 -608 -7 -22 -29 -58
-49 -79 -30 -31 -43 -38 -75 -38 -85 0 -205 83 -251 173 -52 103 -38 259 37
406 22 44 26 61 17 70 -18 18 -31 13 -68 -26 -64 -68 -99 -181 -99 -319 0
-114 24 -168 112 -249 110 -102 215 -139 312 -111 97 29 152 121 176 299 23
175 10 355 -46 642 -60 305 -79 359 -143 402 -39 27 -37 26 -77 9z m60 -93
c27 -36 34 -124 12 -142 -10 -8 -16 -30 -17 -55 0 -55 -20 -110 -40 -114 -42
-8 -80 120 -59 199 11 43 66 139 79 139 3 0 15 -13 25 -27z"/>
</g>
</svg>
