<?xml version="1.0" standalone="no"?>
<!DOCTYPE svg PUBLIC "-//W3C//DTD SVG 20010904//EN"
 "http://www.w3.org/TR/2001/REC-SVG-20010904/DTD/svg10.dtd">
<svg version="1.0" xmlns="http://www.w3.org/2000/svg"
 width="58.000000pt" height="96.000000pt" viewBox="0 0 58.000000 96.000000"
 preserveAspectRatio="xMidYMid meet">
<metadata>
Created by potrace 1.16, written by Peter Selinger 2001-2019
</metadata>
<g transform="translate(0.000000,96.000000) scale(0.100000,-0.100000)"
fill="#000000" stroke="none">
<path d="M48 893 c-15 -4 -18 -18 -20 -91 -6 -199 21 -604 43 -660 11 -29 55
-46 93 -35 26 7 33 18 58 88 35 101 59 155 69 155 4 0 17 -18 28 -41 12 -22
32 -52 46 -67 14 -15 25 -30 25 -33 0 -4 21 -21 48 -39 36 -24 54 -30 77 -26
54 11 54 53 -1 87 -42 26 -85 87 -129 184 -32 69 -37 74 -71 81 -21 4 -44 2
-53 -3 -13 -8 -76 -117 -94 -163 -5 -13 -7 -13 -16 0 -22 32 -36 371 -19 467
10 56 9 65 -7 83 -17 19 -40 23 -77 13z"/>
</g>
</svg>
