<?xml version="1.0" standalone="no"?>
<!DOCTYPE svg PUBLIC "-//W3C//DTD SVG 20010904//EN"
 "http://www.w3.org/TR/2001/REC-SVG-20010904/DTD/svg10.dtd">
<svg version="1.0" xmlns="http://www.w3.org/2000/svg"
 width="32.000000pt" height="75.000000pt" viewBox="0 0 32.000000 75.000000"
 preserveAspectRatio="xMidYMid meet">
<metadata>
Created by potrace 1.16, written by Peter Selinger 2001-2019
</metadata>
<g transform="translate(0.000000,75.000000) scale(0.100000,-0.100000)"
fill="#000000" stroke="none">
<path d="M53 649 c-28 -10 -31 -49 -5 -72 23 -21 85 -22 102 -2 13 15 6 48
-13 63 -20 15 -60 21 -84 11z"/>
<path d="M127 390 c-19 -16 -20 -21 -10 -56 6 -22 16 -88 22 -148 6 -60 16
-115 22 -122 15 -19 73 -18 89 1 10 12 10 27 1 73 -7 31 -13 94 -14 139 -2 62
-7 86 -20 101 -25 28 -64 33 -90 12z"/>
</g>
</svg>
