<?xml version="1.0" standalone="no"?>
<!DOCTYPE svg PUBLIC "-//W3C//DTD SVG 20010904//EN"
 "http://www.w3.org/TR/2001/REC-SVG-20010904/DTD/svg10.dtd">
<svg version="1.0" xmlns="http://www.w3.org/2000/svg"
 width="77.000000pt" height="117.000000pt" viewBox="0 0 77.000000 117.000000"
 preserveAspectRatio="xMidYMid meet">
<metadata>
Created by potrace 1.16, written by Peter Selinger 2001-2019
</metadata>
<g transform="translate(0.000000,117.000000) scale(0.100000,-0.100000)"
fill="#000000" stroke="none">
<path d="M263 1065 c-38 -16 -42 -38 -11 -59 32 -22 81 -20 103 4 18 20 18 21
-1 39 -28 27 -55 32 -91 16z"/>
<path d="M311 876 c-15 -18 -5 -40 34 -76 34 -31 115 -150 148 -216 13 -27 41
-83 62 -124 44 -87 57 -175 32 -213 -30 -46 -124 -58 -255 -31 -123 25 -144
42 -182 139 -29 74 -54 105 -72 87 -9 -9 -9 -25 1 -74 26 -125 57 -160 187
-204 112 -38 256 -40 332 -5 85 40 110 116 76 232 -32 107 -227 444 -282 487
-21 16 -67 15 -81 -2z"/>
</g>
</svg>
