<?xml version="1.0" standalone="no"?>
<!DOCTYPE svg PUBLIC "-//W3C//DTD SVG 20010904//EN"
 "http://www.w3.org/TR/2001/REC-SVG-20010904/DTD/svg10.dtd">
<svg version="1.0" xmlns="http://www.w3.org/2000/svg"
 width="58.000000pt" height="99.000000pt" viewBox="0 0 58.000000 99.000000"
 preserveAspectRatio="xMidYMid meet">
<metadata>
Created by potrace 1.16, written by Peter Selinger 2001-2019
</metadata>
<g transform="translate(0.000000,99.000000) scale(0.100000,-0.100000)"
fill="#000000" stroke="none">
<path d="M14 886 c-3 -13 1 -37 9 -53 12 -23 16 -79 17 -273 3 -333 3 -385 -1
-420 -1 -19 6 -41 18 -58 37 -50 123 -37 123 19 0 24 3 24 48 -6 63 -41 223
-71 258 -47 35 24 11 79 -30 68 -11 -3 -51 2 -88 10 -72 17 -128 57 -128 94 0
28 78 137 118 167 56 41 62 51 50 79 -9 19 -19 24 -48 24 -32 0 -44 -8 -96
-63 -32 -34 -71 -78 -87 -97 -48 -60 -51 -41 -53 267 -1 274 -1 277 -24 295
-33 27 -78 24 -86 -6z"/>
</g>
</svg>
