<?xml version="1.0" standalone="no"?>
<!DOCTYPE svg PUBLIC "-//W3C//DTD SVG 20010904//EN"
 "http://www.w3.org/TR/2001/REC-SVG-20010904/DTD/svg10.dtd">
<svg version="1.0" xmlns="http://www.w3.org/2000/svg"
 width="43.000000pt" height="117.000000pt" viewBox="0 0 43.000000 117.000000"
 preserveAspectRatio="xMidYMid meet">
<metadata>
Created by potrace 1.16, written by Peter Selinger 2001-2019
</metadata>
<g transform="translate(0.000000,117.000000) scale(0.100000,-0.100000)"
fill="#000000" stroke="none">
<path d="M220 971 c-5 -11 -10 -35 -10 -53 0 -18 -7 -62 -16 -98 -20 -87 -33
-239 -35 -447 -3 -161 -2 -174 17 -187 50 -39 114 -24 114 25 0 15 -7 44 -16
65 -22 52 -15 404 10 509 28 113 31 169 11 188 -22 23 -62 21 -75 -2z"/>
</g>
</svg>
