<?xml version="1.0" standalone="no"?>
<!DOCTYPE svg PUBLIC "-//W3C//DTD SVG 20010904//EN"
 "http://www.w3.org/TR/2001/REC-SVG-20010904/DTD/svg10.dtd">
<svg version="1.0" xmlns="http://www.w3.org/2000/svg"
 width="79.000000pt" height="92.000000pt" viewBox="0 0 79.000000 92.000000"
 preserveAspectRatio="xMidYMid meet">
<metadata>
Created by potrace 1.16, written by Peter Selinger 2001-2019
</metadata>
<g transform="translate(0.000000,92.000000) scale(0.100000,-0.100000)"
fill="#000000" stroke="none">
<path d="M248 738 c-16 -5 -28 -13 -28 -16 0 -4 -9 -18 -19 -31 -18 -24 -19
-24 -46 -7 -23 15 -31 16 -56 6 -33 -14 -35 -24 -13 -100 10 -34 18 -115 21
-215 6 -178 14 -205 61 -205 16 0 37 6 47 14 17 12 18 18 6 68 -26 108 5 368
44 368 15 0 39 -119 40 -202 0 -60 2 -68 28 -88 25 -19 31 -21 57 -10 17 7 30
15 30 19 1 3 2 47 4 96 3 89 30 190 51 190 16 0 43 -64 70 -168 14 -54 32
-112 41 -128 19 -37 59 -54 91 -40 34 15 39 38 16 70 -11 15 -37 74 -57 131
-84 239 -98 259 -168 246 -26 -5 -40 -16 -59 -46 -13 -22 -27 -40 -31 -40 -4
0 -17 18 -27 39 -23 45 -61 63 -103 49z"/>
</g>
</svg>
