<?xml version="1.0" standalone="no"?>
<!DOCTYPE svg PUBLIC "-//W3C//DTD SVG 20010904//EN"
 "http://www.w3.org/TR/2001/REC-SVG-20010904/DTD/svg10.dtd">
<svg version="1.0" xmlns="http://www.w3.org/2000/svg"
 width="55.000000pt" height="83.000000pt" viewBox="0 0 55.000000 83.000000"
 preserveAspectRatio="xMidYMid meet">
<metadata>
Created by potrace 1.16, written by Peter Selinger 2001-2019
</metadata>
<g transform="translate(0.000000,83.000000) scale(0.100000,-0.100000)"
fill="#000000" stroke="none">
<path d="M220 674 l-41 -37 -23 22 c-17 16 -33 21 -56 19 l-33 -3 2 -215 c1
-207 1 -216 22 -232 25 -21 74 -24 86 -5 4 6 8 57 9 112 1 119 19 185 68 241
l34 39 12 -30 c15 -38 26 -97 41 -218 12 -89 16 -101 42 -123 31 -26 57 -30
88 -14 24 14 24 40 -1 83 -12 19 -29 80 -40 135 -23 118 -62 232 -87 249 -33
25 -80 16 -123 -23z"/>
</g>
</svg>
