<?xml version="1.0" standalone="no"?>
<!DOCTYPE svg PUBLIC "-//W3C//DTD SVG 20010904//EN"
 "http://www.w3.org/TR/2001/REC-SVG-20010904/DTD/svg10.dtd">
<svg version="1.0" xmlns="http://www.w3.org/2000/svg"
 width="58.000000pt" height="104.000000pt" viewBox="0 0 58.000000 104.000000"
 preserveAspectRatio="xMidYMid meet">
<metadata>
Created by potrace 1.16, written by Peter Selinger 2001-2019
</metadata>
<g transform="translate(0.000000,104.000000) scale(0.100000,-0.100000)"
fill="#000000" stroke="none">
<path d="M204 926 c-66 -29 -142 -154 -164 -273 -22 -110 17 -201 94 -221 30
-8 31 -9 26 -58 -3 -27 -5 -99 -5 -161 0 -98 3 -115 21 -140 15 -20 31 -29 56
-31 46 -4 72 22 162 159 38 57 84 123 103 147 26 32 33 49 29 67 -14 55 -88
36 -115 -30 -18 -46 -150 -245 -162 -245 -17 0 -20 44 -9 139 12 108 33 182
85 302 26 59 65 182 65 204 0 2 -11 16 -25 31 -14 15 -25 39 -25 53 0 44 -26
71 -68 71 -20 -1 -51 -7 -68 -14z m38 -143 c-6 -21 -8 -51 -5 -67 6 -30 -29
-158 -53 -190 -31 -43 -70 19 -59 94 10 63 50 159 82 192 35 36 51 23 35 -29z"/>
</g>
</svg>
