<?xml version="1.0" standalone="no"?>
<!DOCTYPE svg PUBLIC "-//W3C//DTD SVG 20010904//EN"
 "http://www.w3.org/TR/2001/REC-SVG-20010904/DTD/svg10.dtd">
<svg version="1.0" xmlns="http://www.w3.org/2000/svg"
 width="53.000000pt" height="55.000000pt" viewBox="0 0 53.000000 55.000000"
 preserveAspectRatio="xMidYMid meet">
<metadata>
Created by potrace 1.16, written by Peter Selinger 2001-2019
</metadata>
<g transform="translate(0.000000,55.000000) scale(0.100000,-0.100000)"
fill="#000000" stroke="none">
<path d="M255 472 c-27 -16 -70 -41 -94 -56 l-43 -28 6 -61 c4 -34 13 -82 21
-107 7 -25 16 -62 20 -84 8 -51 44 -86 88 -86 55 0 61 17 33 96 -26 75 -37
153 -29 196 7 39 62 70 136 77 74 7 96 31 58 62 -37 30 -132 26 -196 -9z"/>
</g>
</svg>
