<?xml version="1.0" standalone="no"?>
<!DOCTYPE svg PUBLIC "-//W3C//DTD SVG 20010904//EN"
 "http://www.w3.org/TR/2001/REC-SVG-20010904/DTD/svg10.dtd">
<svg version="1.0" xmlns="http://www.w3.org/2000/svg"
 width="57.000000pt" height="71.000000pt" viewBox="0 0 57.000000 71.000000"
 preserveAspectRatio="xMidYMid meet">
<metadata>
Created by potrace 1.16, written by Peter Selinger 2001-2019
</metadata>
<g transform="translate(0.000000,71.000000) scale(0.100000,-0.100000)"
fill="#000000" stroke="none">
<path d="M237 648 c-15 -12 -16 -23 -7 -98 17 -146 22 -134 -77 -182 -102 -51
-119 -70 -84 -99 31 -26 67 -24 120 6 24 14 48 22 53 17 4 -4 9 -47 9 -95 1
-97 11 -117 59 -117 37 0 52 26 46 77 -3 21 -8 71 -11 110 l-5 73 82 40 c86
42 122 77 111 106 -5 14 -15 15 -60 10 -30 -3 -72 -15 -93 -26 -20 -10 -40
-16 -44 -13 -3 4 -6 43 -6 88 0 67 -3 85 -18 98 -22 20 -52 22 -75 5z"/>
</g>
</svg>
