<?xml version="1.0" standalone="no"?>
<!DOCTYPE svg PUBLIC "-//W3C//DTD SVG 20010904//EN"
 "http://www.w3.org/TR/2001/REC-SVG-20010904/DTD/svg10.dtd">
<svg version="1.0" xmlns="http://www.w3.org/2000/svg"
 width="54.000000pt" height="57.000000pt" viewBox="0 0 54.000000 57.000000"
 preserveAspectRatio="xMidYMid meet">
<metadata>
Created by potrace 1.16, written by Peter Selinger 2001-2019
</metadata>
<g transform="translate(0.000000,57.000000) scale(0.100000,-0.100000)"
fill="#000000" stroke="none">
<path d="M86 464 c-3 -9 3 -29 14 -45 12 -15 34 -61 51 -101 36 -87 33 -96
-53 -163 -61 -49 -70 -68 -39 -85 35 -18 64 -11 112 30 l48 41 15 -29 c19 -37
61 -60 84 -46 25 16 26 50 2 89 -14 22 -20 44 -16 58 9 38 132 145 193 168 30
11 33 73 4 89 -30 16 -79 12 -96 -7 -52 -63 -140 -153 -149 -153 -15 0 -32 30
-46 80 -19 70 -37 90 -80 90 -25 0 -40 -5 -44 -16z"/>
</g>
</svg>
