<?xml version="1.0" standalone="no"?>
<!DOCTYPE svg PUBLIC "-//W3C//DTD SVG 20010904//EN"
 "http://www.w3.org/TR/2001/REC-SVG-20010904/DTD/svg10.dtd">
<svg version="1.0" xmlns="http://www.w3.org/2000/svg"
 width="94.000000pt" height="116.000000pt" viewBox="0 0 94.000000 116.000000"
 preserveAspectRatio="xMidYMid meet">
<metadata>
Created by potrace 1.16, written by Peter Selinger 2001-2019
</metadata>
<g transform="translate(0.000000,116.000000) scale(0.100000,-0.100000)"
fill="#000000" stroke="none">
<path d="M528 959 c-10 -5 -18 -19 -18 -30 0 -11 -9 -37 -19 -57 -30 -60 -44
-152 -30 -206 26 -103 130 -139 217 -76 23 17 47 39 54 50 7 11 16 20 19 20 3
0 16 -42 28 -93 22 -93 22 -94 3 -144 -38 -101 -109 -164 -229 -204 -48 -16
-80 -20 -117 -16 -50 5 -67 11 -188 65 -81 36 -86 65 -19 125 44 39 42 61 -6
54 -71 -12 -139 -87 -129 -141 10 -48 59 -82 205 -143 122 -50 206 -55 297
-19 120 48 204 116 257 207 39 66 42 105 18 202 -40 156 -43 194 -21 243 11
23 20 55 20 70 0 38 -34 72 -66 66 -32 -6 -51 -35 -60 -92 -9 -60 -23 -85 -81
-147 -35 -38 -57 -53 -76 -53 -33 0 -39 11 -40 69 -1 54 14 98 55 158 34 50
34 54 5 81 -25 24 -52 27 -79 11z"/>
</g>
</svg>
