<?xml version="1.0" standalone="no"?>
<!DOCTYPE svg PUBLIC "-//W3C//DTD SVG 20010904//EN"
 "http://www.w3.org/TR/2001/REC-SVG-20010904/DTD/svg10.dtd">
<svg version="1.0" xmlns="http://www.w3.org/2000/svg"
 width="52.000000pt" height="70.000000pt" viewBox="0 0 52.000000 70.000000"
 preserveAspectRatio="xMidYMid meet">
<metadata>
Created by potrace 1.16, written by Peter Selinger 2001-2019
</metadata>
<g transform="translate(0.000000,70.000000) scale(0.100000,-0.100000)"
fill="#000000" stroke="none">
<path d="M37 593 c-13 -12 -7 -51 9 -68 13 -13 28 -14 75 -9 32 4 59 3 59 -2
0 -5 -30 -36 -66 -68 -80 -72 -101 -111 -88 -162 7 -29 18 -42 49 -58 37 -19
55 -21 210 -19 156 2 171 4 186 22 23 28 13 69 -22 86 -38 20 -61 19 -108 -5
-52 -27 -204 -26 -209 2 -4 23 57 82 147 142 40 26 75 55 78 62 11 29 -7 62
-38 73 -34 12 -271 15 -282 4z"/>
</g>
</svg>
